<svg width="120" height="37" viewBox="0 0 120 37" fill="none" xmlns="http://www.w3.org/2000/svg">
<rect x="0.5" y="0.5" width="119" height="35.5501" rx="6.5" fill="#00256C"/>
<rect x="0.5" y="0.5" width="119" height="35.5501" rx="6.5" stroke="white"/>
<path d="M81.5259 17.5451V19.6385H80.0899V21.0114H81.5259V25.676C81.5259 27.2689 82.3145 27.906 84.2984 27.906C84.647 27.906 84.9791 27.8681 85.2696 27.8226V26.4649C85.0206 26.4876 84.8628 26.5028 84.5889 26.5028C83.7007 26.5028 83.3106 26.1236 83.3106 25.2589V21.0114H85.2696V19.6385H83.3106V17.5451H81.5259Z" fill="white"/>
<path d="M90.3234 28.0198C92.9631 28.0198 94.5817 26.4042 94.5817 23.7267C94.5817 21.0645 92.9548 19.4413 90.3234 19.4413C87.6838 19.4413 86.0568 21.0645 86.0568 23.7267C86.0568 26.4042 87.6755 28.0198 90.3234 28.0198ZM90.3234 26.5711C88.7712 26.5711 87.8996 25.5319 87.8996 23.7267C87.8996 21.9367 88.7712 20.89 90.3234 20.89C91.8674 20.89 92.7473 21.9367 92.7473 23.7267C92.7473 25.5244 91.8674 26.5711 90.3234 26.5711Z" fill="white"/>
<path d="M95.9666 27.8605H97.7513V22.9834C97.7513 21.8229 98.7059 21.0417 100.059 21.0417C100.374 21.0417 100.906 21.0948 101.055 21.1403V19.5323C100.864 19.4868 100.524 19.464 100.258 19.464C99.0794 19.464 98.075 20.0557 97.8177 20.8672H97.6849V19.6006H95.9666V27.8605Z" fill="white"/>
<path d="M105.486 20.8293C106.806 20.8293 107.669 21.6712 107.711 22.9683H103.145C103.245 21.6788 104.166 20.8293 105.486 20.8293ZM107.703 25.6305C107.371 26.2753 106.632 26.6317 105.553 26.6317C104.125 26.6317 103.204 25.714 103.145 24.2653V24.1742H109.529V23.6054C109.529 21.0114 108.01 19.4413 105.495 19.4413C102.946 19.4413 101.328 21.1175 101.328 23.7571C101.328 26.3966 102.913 28.0198 105.503 28.0198C107.57 28.0198 109.014 27.1096 109.421 25.6305H107.703Z" fill="white"/>
<path d="M69.8223 24.8102C69.96 26.8385 71.8098 28.1356 74.5629 28.1356C77.5053 28.1356 79.3464 26.7756 79.3464 24.6058C79.3464 22.8999 78.2968 21.9565 75.7502 21.4141L74.3822 21.1075C72.7647 20.7616 72.1109 20.2977 72.1109 19.488C72.1109 18.466 73.1261 17.7978 74.6489 17.7978C76.0943 17.7978 77.0923 18.4503 77.273 19.4959H79.1486C79.0367 17.5855 77.1956 16.2412 74.6747 16.2412C71.9646 16.2412 70.1579 17.5855 70.1579 19.6059C70.1579 21.2726 71.1817 22.2631 73.4272 22.7427L75.0275 23.0964C76.6707 23.4502 77.3934 23.9691 77.3934 24.8338C77.3934 25.8401 76.2578 26.5712 74.7091 26.5712C73.0487 26.5712 71.8958 25.8873 71.7323 24.8102H69.8223Z" fill="white"/>
<path d="M51.335 19.464C50.1065 19.464 49.044 20.0253 48.4961 20.9658H48.3633V19.6006H46.6451V30.6062H48.4297V26.609H48.5708C49.044 27.4812 50.065 27.997 51.3516 27.997C53.6343 27.997 55.087 26.3511 55.087 23.7267C55.087 21.1024 53.6343 19.464 51.335 19.464ZM50.8287 26.5331C49.3345 26.5331 48.3965 25.4561 48.3965 23.7343C48.3965 22.005 49.3345 20.9279 50.837 20.9279C52.3477 20.9279 53.2525 21.9822 53.2525 23.7267C53.2525 25.4788 52.3477 26.5331 50.8287 26.5331Z" fill="white"/>
<path d="M61.3318 19.464C60.1033 19.464 59.0408 20.0253 58.4929 20.9658H58.3601V19.6006H56.6419V30.6062H58.4265V26.609H58.5676C59.0408 27.4812 60.0618 27.997 61.3484 27.997C63.6311 27.997 65.0838 26.3511 65.0838 23.7267C65.0838 21.1024 63.6311 19.464 61.3318 19.464ZM60.8255 26.5331C59.3313 26.5331 58.3933 25.4561 58.3933 23.7343C58.3933 22.005 59.3313 20.9279 60.8338 20.9279C62.3445 20.9279 63.2493 21.9822 63.2493 23.7267C63.2493 25.4788 62.3445 26.5331 60.8255 26.5331Z" fill="white"/>
<path d="M43.4431 27.8605H45.4907L41.0083 16.5164H38.9348L34.4524 27.8605H36.4312L37.5755 24.8495H42.3074L43.4431 27.8605ZM39.8726 18.5761H40.0189L41.817 23.3716H38.0659L39.8726 18.5761Z" fill="white"/>
<path d="M35.6511 7.95969V13.4322H37.8135C39.5981 13.4322 40.6316 12.4272 40.6316 10.6789C40.6316 8.9571 39.5898 7.95969 37.8135 7.95969H35.6511ZM36.5808 8.73335H37.7097C38.9507 8.73335 39.6853 9.45391 39.6853 10.6902C39.6853 11.9455 38.9631 12.6585 37.7097 12.6585H36.5808V8.73335Z" fill="white"/>
<path d="M43.7967 13.5118C45.1165 13.5118 45.9258 12.704 45.9258 11.3653C45.9258 10.0342 45.1124 9.22257 43.7967 9.22257C42.4769 9.22257 41.6634 10.0342 41.6634 11.3653C41.6634 12.704 42.4727 13.5118 43.7967 13.5118ZM43.7967 12.7875C43.0206 12.7875 42.5848 12.2679 42.5848 11.3653C42.5848 10.4703 43.0206 9.94693 43.7967 9.94693C44.5687 9.94693 45.0086 10.4703 45.0086 11.3653C45.0086 12.2641 44.5687 12.7875 43.7967 12.7875Z" fill="white"/>
<path d="M52.818 9.30221H51.9256L51.1205 12.4537H51.0499L50.1202 9.30221H49.2652L48.3355 12.4537H48.2691L47.4598 9.30221H46.555L47.8001 13.4322H48.7174L49.6471 10.3906H49.7176L50.6515 13.4322H51.577L52.818 9.30221Z" fill="white"/>
<path d="M53.8456 13.4322H54.7379V11.0164C54.7379 10.3717 55.1571 9.96968 55.817 9.96968C56.477 9.96968 56.7924 10.2996 56.7924 10.9633V13.4322H57.6847V10.7585C57.6847 9.77627 57.1286 9.22257 56.12 9.22257C55.4394 9.22257 54.9911 9.49942 54.7711 9.9583H54.7047V9.30221H53.8456V13.4322Z" fill="white"/>
<path d="M59.09 13.4322H59.9824V7.69043H59.09V13.4322Z" fill="white"/>
<path d="M63.3384 13.5118C64.6582 13.5118 65.4675 12.704 65.4675 11.3653C65.4675 10.0342 64.6541 9.22257 63.3384 9.22257C62.0186 9.22257 61.2051 10.0342 61.2051 11.3653C61.2051 12.704 62.0144 13.5118 63.3384 13.5118ZM63.3384 12.7875C62.5623 12.7875 62.1265 12.2679 62.1265 11.3653C62.1265 10.4703 62.5623 9.94693 63.3384 9.94693C64.1104 9.94693 64.5503 10.4703 64.5503 11.3653C64.5503 12.2641 64.1104 12.7875 63.3384 12.7875Z" fill="white"/>
<path d="M68.1263 12.814C67.6407 12.814 67.2879 12.5978 67.2879 12.2262C67.2879 11.8621 67.5701 11.6687 68.1927 11.6308L69.2967 11.5663V11.9114C69.2967 12.4234 68.7986 12.814 68.1263 12.814ZM67.898 13.5004C68.4915 13.5004 68.9854 13.2653 69.2552 12.8519H69.3257V13.4322H70.1849V10.6106C70.1849 9.73834 69.5457 9.22257 68.4126 9.22257C67.3875 9.22257 66.657 9.67766 66.5657 10.3868H67.429C67.5286 10.0948 67.8731 9.92796 68.3711 9.92796C68.9812 9.92796 69.2967 10.1745 69.2967 10.6106V10.9671L68.0723 11.0316C66.9974 11.0922 66.3914 11.5208 66.3914 12.2641C66.3914 13.0188 67.0264 13.5004 67.898 13.5004Z" fill="white"/>
<path d="M73.213 13.5004C73.8355 13.5004 74.3626 13.2312 74.6324 12.7799H74.703V13.4322H75.558V7.69043H74.6656V9.9583H74.5992C74.3543 9.50321 73.8314 9.23395 73.213 9.23395C72.0716 9.23395 71.337 10.0607 71.337 11.3653C71.337 12.6737 72.0633 13.5004 73.213 13.5004ZM73.4662 9.96589C74.2132 9.96589 74.6822 10.5082 74.6822 11.3691C74.6822 12.2338 74.2174 12.7685 73.4662 12.7685C72.7108 12.7685 72.2584 12.2413 72.2584 11.3653C72.2584 10.4968 72.7149 9.96589 73.4662 9.96589Z" fill="white"/>
<path d="M81.3444 13.5118C82.6643 13.5118 83.4736 12.704 83.4736 11.3653C83.4736 10.0342 82.6601 9.22257 81.3444 9.22257C80.0246 9.22257 79.2111 10.0342 79.2111 11.3653C79.2111 12.704 80.0205 13.5118 81.3444 13.5118ZM81.3444 12.7875C80.5683 12.7875 80.1325 12.2679 80.1325 11.3653C80.1325 10.4703 80.5683 9.94693 81.3444 9.94693C82.1164 9.94693 82.5563 10.4703 82.5563 11.3653C82.5563 12.2641 82.1164 12.7875 81.3444 12.7875Z" fill="white"/>
<path d="M84.6548 13.4322H85.5471V11.0164C85.5471 10.3717 85.9663 9.96968 86.6262 9.96968C87.2861 9.96968 87.6016 10.2996 87.6016 10.9633V13.4322H88.4939V10.7585C88.4939 9.77627 87.9377 9.22257 86.9292 9.22257C86.2485 9.22257 85.8003 9.49942 85.5803 9.9583H85.5139V9.30221H84.6548V13.4322Z" fill="white"/>
<path d="M92.6036 8.27446V9.32118H91.8856V10.0076H92.6036V12.34C92.6036 13.1364 92.9979 13.4549 93.9898 13.4549C94.1642 13.4549 94.3302 13.436 94.4754 13.4132V12.7344C94.3509 12.7457 94.2721 12.7533 94.1351 12.7533C93.691 12.7533 93.4959 12.5637 93.4959 12.1314V10.0076H94.4754V9.32118H93.4959V8.27446H92.6036Z" fill="white"/>
<path d="M95.6732 13.4322H96.5656V11.0202C96.5656 10.3944 96.9723 9.97347 97.7028 9.97347C98.3336 9.97347 98.6698 10.3072 98.6698 10.9671V13.4322H99.5622V10.7661C99.5622 9.78385 98.9687 9.22636 98.0058 9.22636C97.3251 9.22636 96.8478 9.50321 96.6278 9.96589H96.5573V7.69043H95.6732V13.4322Z" fill="white"/>
<path d="M102.781 9.91659C103.441 9.91659 103.873 10.3375 103.894 10.9861H101.611C101.661 10.3413 102.121 9.91659 102.781 9.91659ZM103.889 12.3172C103.723 12.6396 103.354 12.8178 102.814 12.8178C102.101 12.8178 101.64 12.3589 101.611 11.6346V11.589H104.802V11.3046C104.802 10.0076 104.043 9.22257 102.785 9.22257C101.511 9.22257 100.702 10.0607 100.702 11.3805C100.702 12.7002 101.495 13.5118 102.789 13.5118C103.823 13.5118 104.545 13.0567 104.748 12.3172H103.889Z" fill="white"/>
<path d="M24.769 18.5498C24.7907 17.0138 25.6934 15.5604 27.1256 14.7559C26.2221 13.5769 24.7088 12.8293 23.1344 12.7843C21.4552 12.6232 19.8272 13.7025 18.9715 13.7025C18.0992 13.7025 16.7817 12.8003 15.363 12.827C13.5137 12.8816 11.7898 13.8423 10.8901 15.3196C8.95607 18.3792 10.3987 22.8758 12.2513 25.349C13.1782 26.56 14.2615 27.9128 15.6789 27.8648C17.066 27.8123 17.584 27.0566 19.2583 27.0566C20.9171 27.0566 21.4031 27.8648 22.8493 27.8343C24.3377 27.8123 25.2754 26.6179 26.1698 25.3954C26.8358 24.5325 27.3483 23.5788 27.6882 22.5696C25.9391 21.8936 24.771 20.2852 24.769 18.5498Z" fill="white"/>
<path d="M22.0373 11.1578C22.8489 10.2676 23.2487 9.12346 23.1518 7.96826C21.912 8.08725 20.7668 8.6287 19.9443 9.48474C19.14 10.3211 18.7214 11.4452 18.8006 12.5562C20.0408 12.5679 21.2601 12.0411 22.0373 11.1578Z" fill="white"/>
</svg>
