<svg width="135" height="37" viewBox="0 0 135 37" fill="none" xmlns="http://www.w3.org/2000/svg">
<rect x="0.5" y="0.5" width="134" height="35.5501" rx="4.5" fill="#00256C"/>
<rect x="0.5" y="0.5" width="134" height="35.5501" rx="4.5" stroke="white"/>
<path d="M68.136 19.875C65.784 19.875 63.867 21.5097 63.867 23.7611C63.867 25.9989 65.784 27.6473 68.136 27.6473C70.489 27.6473 72.406 25.9989 72.406 23.7611C72.405 21.5097 70.488 19.875 68.136 19.875ZM68.136 26.1177C66.847 26.1177 65.736 25.1464 65.736 23.7621C65.736 22.3631 66.848 21.4064 68.136 21.4064C69.425 21.4064 70.536 22.3631 70.536 23.7621C70.536 25.1455 69.425 26.1177 68.136 26.1177ZM58.822 19.875C56.47 19.875 54.553 21.5097 54.553 23.7611C54.553 25.9989 56.47 27.6473 58.822 27.6473C61.175 27.6473 63.092 25.9989 63.092 23.7611C63.092 21.5097 61.175 19.875 58.822 19.875ZM58.822 26.1177C57.533 26.1177 56.422 25.1464 56.422 23.7621C56.422 22.3631 57.534 21.4064 58.822 21.4064C60.111 21.4064 61.222 22.3631 61.222 23.7621C61.223 25.1455 60.111 26.1177 58.822 26.1177ZM47.744 21.0683V22.7167H52.062C51.933 23.6442 51.595 24.3213 51.079 24.7919C50.451 25.3657 49.468 25.9989 47.744 25.9989C45.086 25.9989 43.008 24.0408 43.008 21.612C43.008 19.1832 45.086 17.2251 47.744 17.2251C49.178 17.2251 50.225 17.7404 50.998 18.4029L52.271 17.2397C51.191 16.2976 49.758 15.5767 47.744 15.5767C44.103 15.5767 41.042 18.285 41.042 21.612C41.042 24.939 44.103 27.6473 47.744 27.6473C49.709 27.6473 51.192 27.058 52.351 25.9542C53.543 24.865 53.914 23.3335 53.914 22.0972C53.914 21.7153 53.882 21.3616 53.817 21.0674H47.744V21.0683ZM93.052 22.3485C92.698 21.4804 91.618 19.875 89.411 19.875C87.22 19.875 85.399 21.4503 85.399 23.7611C85.399 25.9395 87.204 27.6473 89.62 27.6473C91.569 27.6473 92.697 26.5581 93.165 25.9249L91.715 25.0413C91.232 25.6892 90.571 26.1159 89.62 26.1159C88.67 26.1159 87.993 25.7184 87.558 24.9381L93.245 22.7889L93.052 22.3485ZM87.252 23.6442C87.204 22.142 88.525 21.3772 89.476 21.3772C90.217 21.3772 90.845 21.7162 91.055 22.2014L87.252 23.6442ZM82.629 27.4125H84.497V15.9897H82.629V27.4125ZM79.567 20.7439H79.503C79.084 20.2871 78.278 19.875 77.264 19.875C75.137 19.875 73.188 21.5828 73.188 23.7767C73.188 25.9551 75.137 27.6483 77.264 27.6483C78.279 27.6483 79.084 27.2361 79.503 26.7656H79.567V27.3248C79.567 28.8115 78.697 29.6064 77.296 29.6064C76.152 29.6064 75.443 28.8562 75.153 28.223L73.526 28.8416C73.993 29.8714 75.233 31.1379 77.296 31.1379C79.487 31.1379 81.34 29.96 81.34 27.089V20.1116H79.568V20.7439H79.567ZM77.425 26.1177C76.136 26.1177 75.057 25.1309 75.057 23.7767C75.057 22.407 76.136 21.4064 77.425 21.4064C78.697 21.4064 79.696 22.407 79.696 23.7767C79.696 25.1309 78.697 26.1177 77.425 26.1177ZM101.806 15.9897H97.335V27.4125H99.2V23.085H101.805C103.873 23.085 105.907 21.7171 105.907 19.5378C105.907 17.3585 103.874 15.9897 101.806 15.9897ZM101.854 21.495H99.2V17.5796H101.854C103.249 17.5796 104.041 18.635 104.041 19.5378C104.041 20.4223 103.249 21.495 101.854 21.495ZM113.386 19.8549C112.035 19.8549 110.636 20.3985 110.057 21.6038L111.713 22.2352C112.067 21.6038 112.727 21.3973 113.418 21.3973C114.383 21.3973 115.364 21.9263 115.38 22.8666V22.9845C115.042 22.8081 114.318 22.544 113.434 22.544C111.649 22.544 109.831 23.4404 109.831 25.1153C109.831 26.644 111.295 27.6281 112.935 27.6281C114.189 27.6281 114.881 27.1137 115.315 26.5106H115.379V27.3924H117.181V23.0128C117.182 20.9861 115.524 19.8549 113.386 19.8549ZM113.16 26.115C112.55 26.115 111.697 25.8354 111.697 25.1446C111.697 24.2628 112.759 23.9247 113.676 23.9247C114.495 23.9247 114.882 24.0864 115.38 24.3067C115.235 25.3657 114.238 26.115 113.16 26.115ZM123.743 20.1043L121.604 25.0568H121.54L119.32 20.1043H117.31L120.639 27.026L118.741 30.8765H120.687L125.818 20.1043H123.743ZM106.937 27.4125H108.802V15.9897H106.937V27.4125Z" fill="white"/>
<path d="M47.418 9.35956C47.418 10.1253 47.1701 10.7348 46.673 11.1898C46.109 11.7308 45.3731 12.0012 44.4691 12.0012C43.6031 12.0012 42.8661 11.7271 42.2611 11.1788C41.6551 10.6297 41.3521 9.94985 41.3521 9.13844C41.3521 8.32611 41.6551 7.64628 42.2611 7.09803C42.8661 6.54886 43.6031 6.27473 44.4691 6.27473C44.8991 6.27473 45.3101 6.35149 45.7001 6.50409C46.0911 6.6576 46.404 6.86136 46.6381 7.1163L46.111 7.59876C45.714 7.16473 45.167 6.94817 44.468 6.94817C43.836 6.94817 43.29 7.15102 42.829 7.55673C42.368 7.96244 42.1381 8.48967 42.1381 9.13752C42.1381 9.78537 42.368 10.3126 42.829 10.7183C43.29 11.124 43.836 11.3269 44.468 11.3269C45.138 11.3269 45.6971 11.1231 46.1441 10.7147C46.4341 10.4488 46.602 10.0787 46.647 9.60445H44.468V8.94563H47.375C47.405 9.08909 47.418 9.22707 47.418 9.35956Z" fill="white"/>
<path d="M52.0281 7.06975H49.2961V8.80771H51.7601V9.46653H49.2961V11.2045H52.0281V11.8788H48.5251V6.39632H52.0281V7.06975Z" fill="white"/>
<path d="M55.279 11.8788H54.508V7.06975H52.832V6.39632H56.955V7.06975H55.279V11.8788Z" fill="white"/>
<path d="M59.938 11.8788V6.39632H60.709V11.8788H59.938Z" fill="white"/>
<path d="M64.1281 11.8788H63.3572V7.06975H61.6812V6.39632H65.8042V7.06975H64.1281V11.8788Z" fill="white"/>
<path d="M73.6089 11.1707C73.0189 11.7244 72.2859 12.0013 71.4089 12.0013C70.5319 12.0013 69.7989 11.7244 69.2099 11.1707C68.6199 10.6169 68.3259 9.93893 68.3259 9.13756C68.3259 8.3362 68.6199 7.6582 69.2099 7.10446C69.7989 6.55073 70.5319 6.27295 71.4089 6.27295C72.2809 6.27295 73.0129 6.55164 73.6049 7.10812C74.1969 7.66459 74.4929 8.34077 74.4929 9.13756C74.4929 9.93893 74.1979 10.6169 73.6089 11.1707ZM69.7789 10.711C70.2229 11.1222 70.7659 11.3269 71.4089 11.3269C72.0519 11.3269 72.5959 11.1213 73.0389 10.711C73.4829 10.2999 73.7059 9.77536 73.7059 9.13756C73.7059 8.49977 73.4829 7.97527 73.0389 7.56408C72.5959 7.15289 72.0519 6.94821 71.4089 6.94821C70.7659 6.94821 70.2229 7.15381 69.7789 7.56408C69.3359 7.97527 69.1129 8.49977 69.1129 9.13756C69.1129 9.77536 69.3359 10.2999 69.7789 10.711Z" fill="white"/>
<path d="M75.5749 11.8788V6.39632H76.513L79.429 10.6608H79.4619L79.429 9.6045V6.39632H80.1999V11.8788H79.3949L76.344 7.40693H76.3109L76.344 8.46322V11.8788H75.5749Z" fill="white"/>
<path d="M47.418 9.35956C47.418 10.1253 47.1701 10.7348 46.673 11.1898C46.109 11.7308 45.3731 12.0012 44.4691 12.0012C43.6031 12.0012 42.8661 11.7271 42.2611 11.1788C41.6551 10.6297 41.3521 9.94985 41.3521 9.13844C41.3521 8.32611 41.6551 7.64628 42.2611 7.09803C42.8661 6.54886 43.6031 6.27473 44.4691 6.27473C44.8991 6.27473 45.3101 6.35149 45.7001 6.50409C46.0911 6.6576 46.404 6.86136 46.6381 7.1163L46.111 7.59876C45.714 7.16473 45.167 6.94817 44.468 6.94817C43.836 6.94817 43.29 7.15102 42.829 7.55673C42.368 7.96244 42.1381 8.48967 42.1381 9.13752C42.1381 9.78537 42.368 10.3126 42.829 10.7183C43.29 11.124 43.836 11.3269 44.468 11.3269C45.138 11.3269 45.6971 11.1231 46.1441 10.7147C46.4341 10.4488 46.602 10.0787 46.647 9.60445H44.468V8.94563H47.375C47.405 9.08909 47.418 9.22707 47.418 9.35956Z" stroke="white" stroke-width="0.2" stroke-miterlimit="10"/>
<path d="M52.0281 7.06975H49.2961V8.80771H51.7601V9.46653H49.2961V11.2045H52.0281V11.8788H48.5251V6.39632H52.0281V7.06975Z" stroke="white" stroke-width="0.2" stroke-miterlimit="10"/>
<path d="M55.279 11.8788H54.508V7.06975H52.832V6.39632H56.955V7.06975H55.279V11.8788Z" stroke="white" stroke-width="0.2" stroke-miterlimit="10"/>
<path d="M59.938 11.8788V6.39632H60.709V11.8788H59.938Z" stroke="white" stroke-width="0.2" stroke-miterlimit="10"/>
<path d="M64.1281 11.8788H63.3572V7.06975H61.6812V6.39632H65.8042V7.06975H64.1281V11.8788Z" stroke="white" stroke-width="0.2" stroke-miterlimit="10"/>
<path d="M73.6089 11.1707C73.0189 11.7244 72.2859 12.0013 71.4089 12.0013C70.5319 12.0013 69.7989 11.7244 69.2099 11.1707C68.6199 10.6169 68.3259 9.93893 68.3259 9.13756C68.3259 8.3362 68.6199 7.6582 69.2099 7.10446C69.7989 6.55073 70.5319 6.27295 71.4089 6.27295C72.2809 6.27295 73.0129 6.55164 73.6049 7.10812C74.1969 7.66459 74.4929 8.34077 74.4929 9.13756C74.4929 9.93893 74.1979 10.6169 73.6089 11.1707ZM69.7789 10.711C70.2229 11.1222 70.7659 11.3269 71.4089 11.3269C72.0519 11.3269 72.5959 11.1213 73.0389 10.711C73.4829 10.2999 73.7059 9.77536 73.7059 9.13756C73.7059 8.49977 73.4829 7.97527 73.0389 7.56408C72.5959 7.15289 72.0519 6.94821 71.4089 6.94821C70.7659 6.94821 70.2229 7.15381 69.7789 7.56408C69.3359 7.97527 69.1129 8.49977 69.1129 9.13756C69.1129 9.77536 69.3359 10.2999 69.7789 10.711Z" stroke="white" stroke-width="0.2" stroke-miterlimit="10"/>
<path d="M75.5749 11.8788V6.39632H76.513L79.429 10.6608H79.4619L79.429 9.6045V6.39632H80.1999V11.8788H79.3949L76.344 7.40693H76.3109L76.344 8.46322V11.8788H75.5749Z" stroke="white" stroke-width="0.2" stroke-miterlimit="10"/>
<path fill-rule="evenodd" clip-rule="evenodd" d="M10.146 7.301C10.0344 7.54137 9.9729 7.83344 9.9729 8.17155V28.3801C9.9729 28.7189 10.0344 29.011 10.1461 29.2512L22.1562 18.2754L10.146 7.301ZM10.8754 29.9394C11.3183 30.1026 11.8907 30.0435 12.5139 29.7206L26.6493 22.3809L22.8974 18.9527L10.8754 29.9394ZM27.5952 21.8907L32.0149 19.5962C33.4119 18.8698 33.4119 17.6828 32.0149 16.9573L27.5931 14.6614L23.6386 18.2753L27.5952 21.8907ZM26.6478 14.1706L12.5139 6.83199C11.8907 6.50842 11.3183 6.4496 10.8755 6.61303L22.8974 17.598L26.6478 14.1706Z" fill="white"/>
</svg>
