<svg width="168" height="59" viewBox="0 0 168 59" fill="none" xmlns="http://www.w3.org/2000/svg">
<path d="M30.6505 5.68L21.1305 34H9.65047L0.13047 5.68H9.57047L15.4105 25.16L21.2105 5.68H30.6505ZM36.7183 9.64C35.1716 9.64 33.9316 9.22667 32.9983 8.4C32.0649 7.57333 31.5983 6.53333 31.5983 5.28C31.5983 4 32.0649 2.94667 32.9983 2.12C33.9316 1.26666 35.1716 0.839998 36.7183 0.839998C38.2383 0.839998 39.465 1.26666 40.3983 2.12C41.3316 2.94667 41.7983 4 41.7983 5.28C41.7983 6.53333 41.3316 7.57333 40.3983 8.4C39.465 9.22667 38.2383 9.64 36.7183 9.64ZM41.1183 11.44V34H32.2383V11.44H41.1183ZM66.5689 22.52C66.5689 23.1333 66.5289 23.72 66.4489 24.28H52.1689C52.3022 26.2267 53.1156 27.2 54.6089 27.2C55.5689 27.2 56.2622 26.76 56.6889 25.88H66.0889C65.7689 27.48 65.0889 28.92 64.0489 30.2C63.0356 31.4533 61.7422 32.4533 60.1689 33.2C58.6222 33.92 56.9156 34.28 55.0489 34.28C52.8089 34.28 50.8089 33.8133 49.0489 32.88C47.3156 31.9467 45.9556 30.6133 44.9689 28.88C44.0089 27.12 43.5289 25.0667 43.5289 22.72C43.5289 20.3733 44.0089 18.3333 44.9689 16.6C45.9556 14.84 47.3156 13.4933 49.0489 12.56C50.8089 11.6267 52.8089 11.16 55.0489 11.16C57.2889 11.16 59.2756 11.6267 61.0089 12.56C62.7689 13.4667 64.1289 14.7733 65.0889 16.48C66.0756 18.1867 66.5689 20.2 66.5689 22.52ZM57.5689 20.4C57.5689 19.6533 57.3289 19.0933 56.8489 18.72C56.3689 18.32 55.7689 18.12 55.0489 18.12C53.4756 18.12 52.5556 18.88 52.2889 20.4H57.5689ZM83.0173 26.44V34H79.6573C73.4707 34 70.3773 30.92 70.3773 24.76V18.84H67.5773V11.44H70.3773V6H79.2573V11.44H82.9373V18.84H79.2573V24.92C79.2573 25.4533 79.3773 25.84 79.6173 26.08C79.884 26.32 80.3107 26.44 80.8973 26.44H83.0173ZM112.199 5.68V34H103.319V22.96H94.8792V34H85.9992V5.68H94.8792V15.88H103.319V5.68H112.199ZM139.675 11.44V34H130.795V30.56C130.101 31.6267 129.168 32.4933 127.995 33.16C126.848 33.8267 125.475 34.16 123.875 34.16C121.288 34.16 119.261 33.2933 117.795 31.56C116.355 29.8267 115.635 27.48 115.635 24.52V11.44H124.475V23.4C124.475 24.4667 124.755 25.32 125.315 25.96C125.901 26.5733 126.675 26.88 127.635 26.88C128.621 26.88 129.395 26.5733 129.955 25.96C130.515 25.32 130.795 24.4667 130.795 23.4V11.44H139.675ZM152.165 14.52C152.725 13.48 153.525 12.6667 154.565 12.08C155.632 11.4667 156.898 11.16 158.365 11.16C160.125 11.16 161.712 11.6267 163.125 12.56C164.538 13.4667 165.645 14.8 166.445 16.56C167.272 18.2933 167.685 20.3467 167.685 22.72C167.685 25.0933 167.272 27.16 166.445 28.92C165.645 30.6533 164.538 31.9867 163.125 32.92C161.712 33.8267 160.125 34.28 158.365 34.28C156.898 34.28 155.632 33.9867 154.565 33.4C153.525 32.7867 152.725 31.96 152.165 30.92V34H143.285V4.4H152.165V14.52ZM158.685 22.72C158.685 21.52 158.378 20.5867 157.765 19.92C157.152 19.2533 156.365 18.92 155.405 18.92C154.445 18.92 153.658 19.2533 153.045 19.92C152.432 20.5867 152.125 21.52 152.125 22.72C152.125 23.92 152.432 24.8533 153.045 25.52C153.658 26.1867 154.445 26.52 155.405 26.52C156.365 26.52 157.152 26.1867 157.765 25.52C158.378 24.8533 158.685 23.92 158.685 22.72ZM58.0699 55.432H52.4059L51.5659 58H45.9739L52.1899 41.008H58.3339L64.5259 58H58.9099L58.0699 55.432ZM56.7739 51.424L55.2379 46.696L53.7019 51.424H56.7739ZM68.1844 43.384C67.2564 43.384 66.5124 43.136 65.9524 42.64C65.3924 42.144 65.1124 41.52 65.1124 40.768C65.1124 40 65.3924 39.368 65.9524 38.872C66.5124 38.36 67.2564 38.104 68.1844 38.104C69.0964 38.104 69.8324 38.36 70.3924 38.872C70.9524 39.368 71.2324 40 71.2324 40.768C71.2324 41.52 70.9524 42.144 70.3924 42.64C69.8324 43.136 69.0964 43.384 68.1844 43.384ZM70.8244 44.464V58H65.4964V44.464H70.8244ZM78.3188 46.96C78.8628 46.176 79.5268 45.552 80.3108 45.088C81.0948 44.608 81.9108 44.368 82.7588 44.368V50.056H81.2468C80.2388 50.056 79.4948 50.232 79.0148 50.584C78.5508 50.936 78.3188 51.56 78.3188 52.456V58H72.9908V44.464H78.3188V46.96ZM89.2819 40.24V58H83.9539V40.24H89.2819ZM94.1363 43.384C93.2083 43.384 92.4643 43.136 91.9043 42.64C91.3443 42.144 91.0643 41.52 91.0643 40.768C91.0643 40 91.3443 39.368 91.9043 38.872C92.4643 38.36 93.2083 38.104 94.1363 38.104C95.0483 38.104 95.7843 38.36 96.3443 38.872C96.9043 39.368 97.1843 40 97.1843 40.768C97.1843 41.52 96.9043 42.144 96.3443 42.64C95.7843 43.136 95.0483 43.384 94.1363 43.384ZM96.7763 44.464V58H91.4483V44.464H96.7763ZM108.423 44.368C109.975 44.368 111.183 44.888 112.047 45.928C112.927 46.968 113.367 48.376 113.367 50.152V58H108.063V50.824C108.063 50.184 107.887 49.68 107.535 49.312C107.199 48.928 106.743 48.736 106.167 48.736C105.575 48.736 105.111 48.928 104.775 49.312C104.439 49.68 104.271 50.184 104.271 50.824V58H98.9427V44.464H104.271V46.528C104.687 45.888 105.239 45.368 105.927 44.968C106.631 44.568 107.463 44.368 108.423 44.368ZM128.541 51.112C128.541 51.48 128.517 51.832 128.469 52.168H119.901C119.981 53.336 120.469 53.92 121.365 53.92C121.941 53.92 122.357 53.656 122.613 53.128H128.253C128.061 54.088 127.653 54.952 127.029 55.72C126.421 56.472 125.645 57.072 124.701 57.52C123.773 57.952 122.749 58.168 121.629 58.168C120.285 58.168 119.085 57.888 118.029 57.328C116.989 56.768 116.173 55.968 115.581 54.928C115.005 53.872 114.717 52.64 114.717 51.232C114.717 49.824 115.005 48.6 115.581 47.56C116.173 46.504 116.989 45.696 118.029 45.136C119.085 44.576 120.285 44.296 121.629 44.296C122.973 44.296 124.165 44.576 125.205 45.136C126.261 45.68 127.077 46.464 127.653 47.488C128.245 48.512 128.541 49.72 128.541 51.112ZM123.141 49.84C123.141 49.392 122.997 49.056 122.709 48.832C122.421 48.592 122.061 48.472 121.629 48.472C120.685 48.472 120.133 48.928 119.973 49.84H123.141Z" fill="#21A9DE"/>
</svg>
