<svg width="110" height="110" viewBox="0 0 110 110" fill="none" xmlns="http://www.w3.org/2000/svg">
<g filter="url(#filter0_i_85_150)">
<path d="M42.9573 50.03C79.0101 27.9705 120.213 34.7985 91.0277 73.6654C108.196 56.3329 113.346 21.6677 57.2641 39.0002C57.2641 39.0002 40.0962 44.2526 24.0728 57.3833C-23.4252 93.099 11.2676 125.227 65.2755 93.099C2.89886 116.734 -3.96829 77.342 42.9573 50.03Z" fill="url(#paint0_linear_85_150)"/>
<path d="M72.252 44.0981C77.1267 44.0981 81.0783 40.4713 81.0783 35.9973C81.0783 31.5233 77.1267 27.8965 72.252 27.8965C67.3774 27.8965 63.4258 31.5233 63.4258 35.9973C63.4258 40.4713 67.3774 44.0981 72.252 44.0981Z" fill="url(#paint1_linear_85_150)"/>
</g>
<g filter="url(#filter1_di_85_150)">
<path d="M7.52588 89.1205C46.3615 86.4202 63.4256 78.3194 67.8387 75.6191C63.4256 67.5183 63.4256 53.3419 64.1611 55.3671C64.8966 57.3923 70.7808 58.0674 70.7808 58.0674C70.7808 58.0674 70.3395 62.7928 71.5163 68.1934C72.5461 72.9189 81.0781 67.5183 88.4333 58.7424C75.1939 83.0449 44.302 87.0953 27.385 97.8964C25.0313 93.5759 13.1649 89.7956 7.52588 89.1205Z" fill="url(#paint2_linear_85_150)"/>
<path d="M89.1689 48.6163L81.0781 56.7172C78.8716 55.367 78.136 54.692 73.7229 54.0169C89.9044 50.6416 102.408 33.0898 102.408 33.0898C102.997 30.9296 103.144 32.1896 103.144 33.0898C99.4097 38.0987 94.3175 45.9161 94.3175 45.9161C91.3754 55.367 82.0588 64.593 78.136 66.8432C84.6086 61.4426 90.6399 52.6668 89.1689 48.6163Z" fill="url(#paint3_linear_85_150)"/>
<path d="M59.7479 62.793V64.8182C1.64158 47.9415 13.4099 22.2889 19.2941 20.2637C25.1783 37.1404 41.3598 54.6922 59.7479 62.793Z" fill="url(#paint4_linear_85_150)"/>
<path d="M60.4835 68.0491L61.219 69.5434C12.6746 68.8684 8.26141 55.367 9.50227 44.5659C20.7653 56.7172 33.2692 64.1429 60.4835 68.0491Z" fill="url(#paint5_linear_85_150)"/>
<path d="M61.9546 72.9191L62.6901 74.2692C38.4179 79.6697 17.8232 80.3448 17.8232 68.8687C27.2241 73.5941 50.9217 74.2692 61.9546 72.9191Z" fill="url(#paint6_linear_85_150)"/>
<path d="M59.748 58.0675V60.0927C17.8232 28.3645 23.7074 -0.663522 35.4757 0.0115468C40.6244 30.3897 47.9796 43.8911 59.748 58.0675Z" fill="url(#paint7_linear_85_150)"/>
</g>
<defs>
<filter id="filter0_i_85_150" x="1.64185" y="27.8965" width="101.072" height="82.4219" filterUnits="userSpaceOnUse" color-interpolation-filters="sRGB">
<feFlood flood-opacity="0" result="BackgroundImageFix"/>
<feBlend mode="normal" in="SourceGraphic" in2="BackgroundImageFix" result="shape"/>
<feColorMatrix in="SourceAlpha" type="matrix" values="0 0 0 0 0 0 0 0 0 0 0 0 0 0 0 0 0 0 127 0" result="hardAlpha"/>
<feOffset dy="4"/>
<feGaussianBlur stdDeviation="2"/>
<feComposite in2="hardAlpha" operator="arithmetic" k2="-1" k3="1"/>
<feColorMatrix type="matrix" values="0 0 0 0 0 0 0 0 0 0 0 0 0 0 0 0 0 0 0.25 0"/>
<feBlend mode="normal" in2="shape" result="effect1_innerShadow_85_150"/>
</filter>
<filter id="filter1_di_85_150" x="3.52588" y="0" width="103.618" height="105.896" filterUnits="userSpaceOnUse" color-interpolation-filters="sRGB">
<feFlood flood-opacity="0" result="BackgroundImageFix"/>
<feColorMatrix in="SourceAlpha" type="matrix" values="0 0 0 0 0 0 0 0 0 0 0 0 0 0 0 0 0 0 127 0" result="hardAlpha"/>
<feOffset dy="4"/>
<feGaussianBlur stdDeviation="2"/>
<feComposite in2="hardAlpha" operator="out"/>
<feColorMatrix type="matrix" values="0 0 0 0 0 0 0 0 0 0 0 0 0 0 0 0 0 0 0.1 0"/>
<feBlend mode="normal" in2="BackgroundImageFix" result="effect1_dropShadow_85_150"/>
<feBlend mode="normal" in="SourceGraphic" in2="effect1_dropShadow_85_150" result="shape"/>
<feColorMatrix in="SourceAlpha" type="matrix" values="0 0 0 0 0 0 0 0 0 0 0 0 0 0 0 0 0 0 127 0" result="hardAlpha"/>
<feOffset dy="4"/>
<feGaussianBlur stdDeviation="2"/>
<feComposite in2="hardAlpha" operator="arithmetic" k2="-1" k3="1"/>
<feColorMatrix type="matrix" values="0 0 0 0 0 0 0 0 0 0 0 0 0 0 0 0 0 0 0.25 0"/>
<feBlend mode="normal" in2="shape" result="effect2_innerShadow_85_150"/>
</filter>
<linearGradient id="paint0_linear_85_150" x1="66.1575" y1="34.6715" x2="42.1709" y2="107.236" gradientUnits="userSpaceOnUse">
<stop stop-color="#FCCD71"/>
<stop offset="0.48" stop-color="#CC4FC5"/>
<stop offset="1" stop-color="#455AD1"/>
</linearGradient>
<linearGradient id="paint1_linear_85_150" x1="65.2646" y1="36.3178" x2="78.7325" y2="32.7685" gradientUnits="userSpaceOnUse">
<stop stop-color="#FFFCAA"/>
<stop offset="0.505" stop-color="#FFCE71"/>
<stop offset="1" stop-color="#FFC700"/>
</linearGradient>
<linearGradient id="paint2_linear_85_150" x1="-18.5394" y1="71.6963" x2="85.2488" y2="119.303" gradientUnits="userSpaceOnUse">
<stop offset="0.0659998" stop-color="#33C671"/>
<stop offset="0.346" stop-color="#30C2E2"/>
<stop offset="0.561" stop-color="#0984D9"/>
<stop offset="0.934545" stop-color="#0F5096"/>
</linearGradient>
<linearGradient id="paint3_linear_85_150" x1="64.2447" y1="45.4134" x2="108.103" y2="54.357" gradientUnits="userSpaceOnUse">
<stop offset="0.0659998" stop-color="#33C671"/>
<stop offset="0.346" stop-color="#30C2E2"/>
<stop offset="0.561" stop-color="#0984D9"/>
<stop offset="0.934545" stop-color="#0F5096"/>
</linearGradient>
<linearGradient id="paint4_linear_85_150" x1="-0.496382" y1="37.4963" x2="66.1618" y2="54.0083" gradientUnits="userSpaceOnUse">
<stop offset="0.0659998" stop-color="#33C671"/>
<stop offset="0.346" stop-color="#30C2E2"/>
<stop offset="0.561" stop-color="#0984D9"/>
<stop offset="0.934545" stop-color="#0F5096"/>
</linearGradient>
<linearGradient id="paint5_linear_85_150" x1="-7.38391" y1="54.2266" x2="56.9039" y2="86.5746" gradientUnits="userSpaceOnUse">
<stop offset="0.0659998" stop-color="#33C671"/>
<stop offset="0.346" stop-color="#30C2E2"/>
<stop offset="0.561" stop-color="#0984D9"/>
<stop offset="0.934545" stop-color="#0F5096"/>
</linearGradient>
<linearGradient id="paint6_linear_85_150" x1="3.36891" y1="72.4097" x2="32.2883" y2="106.737" gradientUnits="userSpaceOnUse">
<stop offset="0.0659998" stop-color="#33C671"/>
<stop offset="0.346" stop-color="#30C2E2"/>
<stop offset="0.561" stop-color="#0984D9"/>
<stop offset="0.934545" stop-color="#0F5096"/>
</linearGradient>
<linearGradient id="paint7_linear_85_150" x1="16.2611" y1="23.2424" x2="66.4482" y2="29.896" gradientUnits="userSpaceOnUse">
<stop offset="0.0659998" stop-color="#33C671"/>
<stop offset="0.346" stop-color="#30C2E2"/>
<stop offset="0.561" stop-color="#0984D9"/>
<stop offset="0.934545" stop-color="#0F5096"/>
</linearGradient>
</defs>
</svg>
