<svg width="300" height="115" viewBox="0 0 300 115" fill="none" xmlns="http://www.w3.org/2000/svg">
<g filter="url(#filter0_d_2_16)">
<path d="M155.65 41.68L146.13 70H134.65L125.13 41.68H134.57L140.41 61.16L146.21 41.68H155.65ZM161.718 45.64C160.172 45.64 158.932 45.2267 157.998 44.4C157.065 43.5733 156.598 42.5333 156.598 41.28C156.598 40 157.065 38.9467 157.998 38.12C158.932 37.2667 160.172 36.84 161.718 36.84C163.238 36.84 164.465 37.2667 165.398 38.12C166.332 38.9467 166.798 40 166.798 41.28C166.798 42.5333 166.332 43.5733 165.398 44.4C164.465 45.2267 163.238 45.64 161.718 45.64ZM166.118 47.44V70H157.238V47.44H166.118ZM191.569 58.52C191.569 59.1333 191.529 59.72 191.449 60.28H177.169C177.302 62.2267 178.116 63.2 179.609 63.2C180.569 63.2 181.262 62.76 181.689 61.88H191.089C190.769 63.48 190.089 64.92 189.049 66.2C188.036 67.4533 186.742 68.4533 185.169 69.2C183.622 69.92 181.916 70.28 180.049 70.28C177.809 70.28 175.809 69.8133 174.049 68.88C172.316 67.9467 170.956 66.6133 169.969 64.88C169.009 63.12 168.529 61.0667 168.529 58.72C168.529 56.3733 169.009 54.3333 169.969 52.6C170.956 50.84 172.316 49.4933 174.049 48.56C175.809 47.6267 177.809 47.16 180.049 47.16C182.289 47.16 184.276 47.6267 186.009 48.56C187.769 49.4667 189.129 50.7733 190.089 52.48C191.076 54.1867 191.569 56.2 191.569 58.52ZM182.569 56.4C182.569 55.6533 182.329 55.0933 181.849 54.72C181.369 54.32 180.769 54.12 180.049 54.12C178.476 54.12 177.556 54.88 177.289 56.4H182.569ZM208.017 62.44V70H204.657C198.471 70 195.377 66.92 195.377 60.76V54.84H192.577V47.44H195.377V42H204.257V47.44H207.937V54.84H204.257V60.92C204.257 61.4533 204.377 61.84 204.617 62.08C204.884 62.32 205.311 62.44 205.897 62.44H208.017ZM237.199 41.68V70H228.319V58.96H219.879V70H210.999V41.68H219.879V51.88H228.319V41.68H237.199ZM264.675 47.44V70H255.795V66.56C255.101 67.6267 254.168 68.4933 252.995 69.16C251.848 69.8267 250.475 70.16 248.875 70.16C246.288 70.16 244.261 69.2933 242.795 67.56C241.355 65.8267 240.635 63.48 240.635 60.52V47.44H249.475V59.4C249.475 60.4667 249.755 61.32 250.315 61.96C250.901 62.5733 251.675 62.88 252.635 62.88C253.621 62.88 254.395 62.5733 254.955 61.96C255.515 61.32 255.795 60.4667 255.795 59.4V47.44H264.675ZM277.165 50.52C277.725 49.48 278.525 48.6667 279.565 48.08C280.632 47.4667 281.898 47.16 283.365 47.16C285.125 47.16 286.712 47.6267 288.125 48.56C289.538 49.4667 290.645 50.8 291.445 52.56C292.272 54.2933 292.685 56.3467 292.685 58.72C292.685 61.0933 292.272 63.16 291.445 64.92C290.645 66.6533 289.538 67.9867 288.125 68.92C286.712 69.8267 285.125 70.28 283.365 70.28C281.898 70.28 280.632 69.9867 279.565 69.4C278.525 68.7867 277.725 67.96 277.165 66.92V70H268.285V40.4H277.165V50.52ZM283.685 58.72C283.685 57.52 283.378 56.5867 282.765 55.92C282.152 55.2533 281.365 54.92 280.405 54.92C279.445 54.92 278.658 55.2533 278.045 55.92C277.432 56.5867 277.125 57.52 277.125 58.72C277.125 59.92 277.432 60.8533 278.045 61.52C278.658 62.1867 279.445 62.52 280.405 62.52C281.365 62.52 282.152 62.1867 282.765 61.52C283.378 60.8533 283.685 59.92 283.685 58.72ZM183.07 91.432H177.406L176.566 94H170.974L177.19 77.008H183.334L189.526 94H183.91L183.07 91.432ZM181.774 87.424L180.238 82.696L178.702 87.424H181.774ZM193.184 79.384C192.256 79.384 191.512 79.136 190.952 78.64C190.392 78.144 190.112 77.52 190.112 76.768C190.112 76 190.392 75.368 190.952 74.872C191.512 74.36 192.256 74.104 193.184 74.104C194.096 74.104 194.832 74.36 195.392 74.872C195.952 75.368 196.232 76 196.232 76.768C196.232 77.52 195.952 78.144 195.392 78.64C194.832 79.136 194.096 79.384 193.184 79.384ZM195.824 80.464V94H190.496V80.464H195.824ZM203.319 82.96C203.863 82.176 204.527 81.552 205.311 81.088C206.095 80.608 206.911 80.368 207.759 80.368V86.056H206.247C205.239 86.056 204.495 86.232 204.015 86.584C203.551 86.936 203.319 87.56 203.319 88.456V94H197.991V80.464H203.319V82.96ZM214.282 76.24V94H208.954V76.24H214.282ZM219.136 79.384C218.208 79.384 217.464 79.136 216.904 78.64C216.344 78.144 216.064 77.52 216.064 76.768C216.064 76 216.344 75.368 216.904 74.872C217.464 74.36 218.208 74.104 219.136 74.104C220.048 74.104 220.784 74.36 221.344 74.872C221.904 75.368 222.184 76 222.184 76.768C222.184 77.52 221.904 78.144 221.344 78.64C220.784 79.136 220.048 79.384 219.136 79.384ZM221.776 80.464V94H216.448V80.464H221.776ZM233.423 80.368C234.975 80.368 236.183 80.888 237.047 81.928C237.927 82.968 238.367 84.376 238.367 86.152V94H233.063V86.824C233.063 86.184 232.887 85.68 232.535 85.312C232.199 84.928 231.743 84.736 231.167 84.736C230.575 84.736 230.111 84.928 229.775 85.312C229.439 85.68 229.271 86.184 229.271 86.824V94H223.943V80.464H229.271V82.528C229.687 81.888 230.239 81.368 230.927 80.968C231.631 80.568 232.463 80.368 233.423 80.368ZM253.541 87.112C253.541 87.48 253.517 87.832 253.469 88.168H244.901C244.981 89.336 245.469 89.92 246.365 89.92C246.941 89.92 247.357 89.656 247.613 89.128H253.253C253.061 90.088 252.653 90.952 252.029 91.72C251.421 92.472 250.645 93.072 249.701 93.52C248.773 93.952 247.749 94.168 246.629 94.168C245.285 94.168 244.085 93.888 243.029 93.328C241.989 92.768 241.173 91.968 240.581 90.928C240.005 89.872 239.717 88.64 239.717 87.232C239.717 85.824 240.005 84.6 240.581 83.56C241.173 82.504 241.989 81.696 243.029 81.136C244.085 80.576 245.285 80.296 246.629 80.296C247.973 80.296 249.165 80.576 250.205 81.136C251.261 81.68 252.077 82.464 252.653 83.488C253.245 84.512 253.541 85.72 253.541 87.112ZM248.141 85.84C248.141 85.392 247.997 85.056 247.709 84.832C247.421 84.592 247.061 84.472 246.629 84.472C245.685 84.472 245.133 84.928 244.973 85.84H248.141Z" fill="#21A9DE"/>
</g>
<g filter="url(#filter1_d_2_16)">
<g filter="url(#filter2_i_2_16)">
<path d="M45.9573 50.0302C82.0101 27.9706 123.213 34.7986 94.0277 73.6655C111.196 56.333 116.346 21.6678 60.2641 39.0003C60.2641 39.0003 43.0962 44.2528 27.0728 57.3834C-20.4252 93.0991 14.2676 125.227 68.2755 93.0991C5.89886 116.734 -0.968292 77.3421 45.9573 50.0302Z" fill="url(#paint0_linear_2_16)"/>
<path d="M75.252 44.0981C80.1267 44.0981 84.0783 40.4713 84.0783 35.9973C84.0783 31.5233 80.1267 27.8965 75.252 27.8965C70.3774 27.8965 66.4258 31.5233 66.4258 35.9973C66.4258 40.4713 70.3774 44.0981 75.252 44.0981Z" fill="url(#paint1_linear_2_16)"/>
</g>
<g filter="url(#filter3_di_2_16)">
<path d="M10.5259 89.1206C49.3615 86.4203 66.4256 78.3195 70.8387 75.6193C66.4256 67.5184 66.4256 53.342 67.1611 55.3672C67.8966 57.3924 73.7808 58.0675 73.7808 58.0675C73.7808 58.0675 73.3395 62.793 74.5163 68.1935C75.5461 72.919 84.0781 67.5184 91.4333 58.7425C78.1939 83.045 47.302 87.0954 30.385 97.8965C28.0313 93.5761 16.1649 89.7957 10.5259 89.1206Z" fill="url(#paint2_linear_2_16)"/>
<path d="M92.1689 48.6166L84.0781 56.7174C81.8716 55.3673 81.136 54.6922 76.7229 54.0171C92.9044 50.6418 105.408 33.09 105.408 33.09C105.997 30.9298 106.144 32.1898 106.144 33.09C102.41 38.0989 97.3175 45.9163 97.3175 45.9163C94.3754 55.3673 85.0588 64.5933 81.136 66.8434C87.6086 61.4429 93.6399 52.667 92.1689 48.6166Z" fill="url(#paint3_linear_2_16)"/>
<path d="M62.7479 62.793V64.8182C4.64158 47.9415 16.4099 22.2889 22.2941 20.2637C28.1783 37.1404 44.3598 54.6922 62.7479 62.793Z" fill="url(#paint4_linear_2_16)"/>
<path d="M63.4835 68.0494L64.219 69.5437C15.6746 68.8686 11.2614 55.3673 12.5023 44.5662C23.7653 56.7174 36.2692 64.1431 63.4835 68.0494Z" fill="url(#paint5_linear_2_16)"/>
<path d="M64.9546 72.9191L65.6901 74.2692C41.4179 79.6697 20.8232 80.3448 20.8232 68.8687C30.2241 73.5941 53.9217 74.2692 64.9546 72.9191Z" fill="url(#paint6_linear_2_16)"/>
<path d="M62.748 58.0675V60.0927C20.8232 28.3645 26.7074 -0.663522 38.4757 0.0115468C43.6244 30.3897 50.9796 43.8911 62.748 58.0675Z" fill="url(#paint7_linear_2_16)"/>
</g>
</g>
<defs>
<filter id="filter0_d_2_16" x="121.13" y="36.84" width="175.555" height="65.328" filterUnits="userSpaceOnUse" color-interpolation-filters="sRGB">
<feFlood flood-opacity="0" result="BackgroundImageFix"/>
<feColorMatrix in="SourceAlpha" type="matrix" values="0 0 0 0 0 0 0 0 0 0 0 0 0 0 0 0 0 0 127 0" result="hardAlpha"/>
<feOffset dy="4"/>
<feGaussianBlur stdDeviation="2"/>
<feComposite in2="hardAlpha" operator="out"/>
<feColorMatrix type="matrix" values="0 0 0 0 0 0 0 0 0 0 0 0 0 0 0 0 0 0 0.25 0"/>
<feBlend mode="normal" in2="BackgroundImageFix" result="effect1_dropShadow_2_16"/>
<feBlend mode="normal" in="SourceGraphic" in2="effect1_dropShadow_2_16" result="shape"/>
</filter>
<filter id="filter1_d_2_16" x="-1" y="0" width="118" height="118" filterUnits="userSpaceOnUse" color-interpolation-filters="sRGB">
<feFlood flood-opacity="0" result="BackgroundImageFix"/>
<feColorMatrix in="SourceAlpha" type="matrix" values="0 0 0 0 0 0 0 0 0 0 0 0 0 0 0 0 0 0 127 0" result="hardAlpha"/>
<feOffset dy="4"/>
<feGaussianBlur stdDeviation="2"/>
<feComposite in2="hardAlpha" operator="out"/>
<feColorMatrix type="matrix" values="0 0 0 0 0 0 0 0 0 0 0 0 0 0 0 0 0 0 0.25 0"/>
<feBlend mode="normal" in2="BackgroundImageFix" result="effect1_dropShadow_2_16"/>
<feBlend mode="normal" in="SourceGraphic" in2="effect1_dropShadow_2_16" result="shape"/>
</filter>
<filter id="filter2_i_2_16" x="4.64185" y="27.8965" width="101.072" height="82.4219" filterUnits="userSpaceOnUse" color-interpolation-filters="sRGB">
<feFlood flood-opacity="0" result="BackgroundImageFix"/>
<feBlend mode="normal" in="SourceGraphic" in2="BackgroundImageFix" result="shape"/>
<feColorMatrix in="SourceAlpha" type="matrix" values="0 0 0 0 0 0 0 0 0 0 0 0 0 0 0 0 0 0 127 0" result="hardAlpha"/>
<feOffset dy="4"/>
<feGaussianBlur stdDeviation="2"/>
<feComposite in2="hardAlpha" operator="arithmetic" k2="-1" k3="1"/>
<feColorMatrix type="matrix" values="0 0 0 0 0 0 0 0 0 0 0 0 0 0 0 0 0 0 0.25 0"/>
<feBlend mode="normal" in2="shape" result="effect1_innerShadow_2_16"/>
</filter>
<filter id="filter3_di_2_16" x="6.52588" y="0" width="103.618" height="105.896" filterUnits="userSpaceOnUse" color-interpolation-filters="sRGB">
<feFlood flood-opacity="0" result="BackgroundImageFix"/>
<feColorMatrix in="SourceAlpha" type="matrix" values="0 0 0 0 0 0 0 0 0 0 0 0 0 0 0 0 0 0 127 0" result="hardAlpha"/>
<feOffset dy="4"/>
<feGaussianBlur stdDeviation="2"/>
<feComposite in2="hardAlpha" operator="out"/>
<feColorMatrix type="matrix" values="0 0 0 0 0 0 0 0 0 0 0 0 0 0 0 0 0 0 0.1 0"/>
<feBlend mode="normal" in2="BackgroundImageFix" result="effect1_dropShadow_2_16"/>
<feBlend mode="normal" in="SourceGraphic" in2="effect1_dropShadow_2_16" result="shape"/>
<feColorMatrix in="SourceAlpha" type="matrix" values="0 0 0 0 0 0 0 0 0 0 0 0 0 0 0 0 0 0 127 0" result="hardAlpha"/>
<feOffset dy="4"/>
<feGaussianBlur stdDeviation="2"/>
<feComposite in2="hardAlpha" operator="arithmetic" k2="-1" k3="1"/>
<feColorMatrix type="matrix" values="0 0 0 0 0 0 0 0 0 0 0 0 0 0 0 0 0 0 0.25 0"/>
<feBlend mode="normal" in2="shape" result="effect2_innerShadow_2_16"/>
</filter>
<linearGradient id="paint0_linear_2_16" x1="69.1575" y1="34.6716" x2="45.1709" y2="107.236" gradientUnits="userSpaceOnUse">
<stop stop-color="#FCCD71"/>
<stop offset="0.48" stop-color="#CC4FC5"/>
<stop offset="1" stop-color="#455AD1"/>
</linearGradient>
<linearGradient id="paint1_linear_2_16" x1="68.2646" y1="36.3178" x2="81.7325" y2="32.7685" gradientUnits="userSpaceOnUse">
<stop stop-color="#FFFCAA"/>
<stop offset="0.505" stop-color="#FFCE71"/>
<stop offset="1" stop-color="#FFC700"/>
</linearGradient>
<linearGradient id="paint2_linear_2_16" x1="-15.5394" y1="71.6965" x2="88.2488" y2="119.303" gradientUnits="userSpaceOnUse">
<stop offset="0.0659998" stop-color="#33C671"/>
<stop offset="0.346" stop-color="#30C2E2"/>
<stop offset="0.561" stop-color="#0984D9"/>
<stop offset="0.934545" stop-color="#0F5096"/>
</linearGradient>
<linearGradient id="paint3_linear_2_16" x1="67.2447" y1="45.4136" x2="111.103" y2="54.3572" gradientUnits="userSpaceOnUse">
<stop offset="0.0659998" stop-color="#33C671"/>
<stop offset="0.346" stop-color="#30C2E2"/>
<stop offset="0.561" stop-color="#0984D9"/>
<stop offset="0.934545" stop-color="#0F5096"/>
</linearGradient>
<linearGradient id="paint4_linear_2_16" x1="2.50362" y1="37.4963" x2="69.1618" y2="54.0083" gradientUnits="userSpaceOnUse">
<stop offset="0.0659998" stop-color="#33C671"/>
<stop offset="0.346" stop-color="#30C2E2"/>
<stop offset="0.561" stop-color="#0984D9"/>
<stop offset="0.934545" stop-color="#0F5096"/>
</linearGradient>
<linearGradient id="paint5_linear_2_16" x1="-4.38391" y1="54.2269" x2="59.9039" y2="86.5749" gradientUnits="userSpaceOnUse">
<stop offset="0.0659998" stop-color="#33C671"/>
<stop offset="0.346" stop-color="#30C2E2"/>
<stop offset="0.561" stop-color="#0984D9"/>
<stop offset="0.934545" stop-color="#0F5096"/>
</linearGradient>
<linearGradient id="paint6_linear_2_16" x1="6.36891" y1="72.4097" x2="35.2883" y2="106.737" gradientUnits="userSpaceOnUse">
<stop offset="0.0659998" stop-color="#33C671"/>
<stop offset="0.346" stop-color="#30C2E2"/>
<stop offset="0.561" stop-color="#0984D9"/>
<stop offset="0.934545" stop-color="#0F5096"/>
</linearGradient>
<linearGradient id="paint7_linear_2_16" x1="19.2611" y1="23.2424" x2="69.4482" y2="29.896" gradientUnits="userSpaceOnUse">
<stop offset="0.0659998" stop-color="#33C671"/>
<stop offset="0.346" stop-color="#30C2E2"/>
<stop offset="0.561" stop-color="#0984D9"/>
<stop offset="0.934545" stop-color="#0F5096"/>
</linearGradient>
</defs>
</svg>
